<?xml version="1.0" encoding="UTF-8" standalone="no"?>

<svg
   viewBox="-20 70 210 110"
   version="1.1">
   <text
   x="46.969303"
   y="173.67177"><tspan
   x="47"
   y="174"
   >ANALYTICS</tspan></text>
   <g id="topPart">
      <path
         d="m 13.181022,70.827308 -12.52270057,12.52326 0.75809997,0.75861 7.7411,7.74113 4.0235006,4.02354 4.024101,-4.02405 7.741599,-7.74165 0.7576,-0.75758 z m 18.2129,18.21286 -14.188799,14.189312 v 21.03075 4.01423 l -4.024601,4.02455 v 0 l 30.7361,-30.73612 z m -36.4262006,0 -12.5223004,12.522752 26.7121004,26.71257 v -25.04498 l -13.4317,-13.431232 z"
         id="rect848-6-42-3-3-0-5-9-5-9" />
      <path
         d="m 74.652723,70.826758 -5.7893,5.7888 -24.946801,24.947332 30.736101,30.73609 24.880198,-24.88065 V 101.2306 99.375937 H 77.376622 l -5.29e-4,8.048093 h 10.486198 l -13.209597,13.49375 -19.3544,-19.35489 19.2562,-19.256212 7.302399,7.3024 5.789398,-5.7888 -7.302997,-7.3024 -1.887701,-1.88825 z"
         id="rect848-2-3-2-1-9-32-2-0-0-1-7-8-7-2-3-1" />
      <path
         d="m 136.12442,70.827278 -30.7361,30.736122 30.7361,30.73611 30.7356,-30.73611 z m 0,11.38174 19.3539,19.354382 -19.3539,19.35438 -19.3544,-19.35438 z"
         id="rect848-7-7-3-1-6-6-9-3-0-0-6-1-3-5" />
   </g>
   <g id="bottomPart">
      <path
         d="m 166.86002,111.36444 -23.052,23.05208 23.052,23.05209 23.0517,-23.05209 z m 0,8.53629 14.5155,14.51579 -14.5155,14.51578 -14.5158,-14.51578 z"
         id="rect848-7-7-3-1-6-6-6-5-7-2-8-0-7-2-9" />    
      <path
         d="m 43.917022,111.74704 10.2475,10.24847 v 0 z m -6.0373,6.03736 -17.014502,17.01498 17.014502,17.01448 v -17.07184 -2.44223 z m 6.0368,2.49803 v 11.96052 l 5.979999,-5.98 z m 14.516999,5.98103 -4.268499,4.26745 v 5.3e-4 l -5.980501,5.98 -4.267999,4.26796 v 17.07133 0 l 23.0519,-23.05183 z"
         id="rect848-7-7-3-1-6-6-6-5-7-2-8-0-7-4-6-2-22-7-7-4-4-0" />
      <path
         d="m 105.13972,111.99604 10.2475,10.24847 v 0 z m -6.037299,6.03736 -17.014499,17.01498 17.014499,17.01448 v -17.07184 -2.44222 z m 6.036799,2.49804 v 11.96051 l 5.98,-5.98 z m 14.517,5.98103 -4.2685,4.26744 v 5.3e-4 l -5.98,5.98 5.9795,5.97948 2.5564,2.55642 10.248,-10.24794 z m -14.517,14.51591 v 17.07133 0 l 8.5354,-8.53538 z"
         id="rect848-7-7-3-1-6-6-6-5-7-2-8-0-7-4-6-2-22-7-7-5-2-9" />
   </g>
</svg>
